<svg xmlns="http://www.w3.org/2000/svg" width="256" height="256" viewBox="0 0 256 256">
  <defs>
    <linearGradient id="screen" x1="0" y1="0" x2="0" y2="1"><stop offset="0" stop-color="#a6e4ff"/><stop offset="1" stop-color="#46c4ff"/></linearGradient>
    <linearGradient id="case" x1="0" y1="0" x2="0" y2="1"><stop offset="0" stop-color="#2a2d32"/><stop offset="1" stop-color="#191b1e"/></linearGradient>
    <linearGradient id="nub" x1="0" y1="0" x2="0" y2="1"><stop offset="0" stop-color="#5a5f66"/><stop offset="1" stop-color="#3c4046"/></linearGradient>
    <linearGradient id="tile" x1="0" y1="0" x2="0" y2="1"><stop offset="0" stop-color="#3a444f"/><stop offset="1" stop-color="#222a31"/></linearGradient>
    <filter id="sh" x="-25%" y="-25%" width="150%" height="150%"><feDropShadow dx="0" dy="3" stdDeviation="6" flood-color="#000" flood-opacity="0.55"/></filter>
  </defs>
  <rect x="0" y="0" width="256" height="256" rx="52" fill="url(#tile)"/>
  <g filter="url(#sh)">
    <rect x="86" y="20" width="84" height="40" rx="14" fill="#565f67"/>
    <rect x="86" y="196" width="84" height="40" rx="14" fill="#565f67"/>
    <rect x="196" y="71" width="12" height="14" rx="3" fill="url(#nub)"/>
    <rect x="196" y="121" width="12" height="14" rx="3" fill="url(#nub)"/>
    <rect x="196" y="171" width="12" height="14" rx="3" fill="url(#nub)"/>
    <rect x="48" y="71" width="12" height="14" rx="3" fill="url(#nub)"/>
    <rect x="53" y="43" width="150" height="170" rx="16" fill="url(#case)" stroke="#0d0e10" stroke-width="1"/>
    <rect x="54" y="44" width="148" height="168" rx="15" fill="none" stroke="rgba(255,255,255,0.07)" stroke-width="1"/>
    <rect x="64" y="54" width="128" height="148" rx="7" fill="#0a0a0a"/>
    <rect x="70" y="62" width="116" height="132" rx="0" fill="url(#screen)"/>
  </g>
</svg>
